:SAMPLES-PER-SECOND 30
:FULLY-SPECIFIED
:DEGREES
1594
root  18.2585 36.7539 -7.4166 -47.5897 86.0788 -44.2081
RightUpLeg  -15.3062 -11.1675 -16.001
RightLeg  64.8768 1.1154 1.97533
RightFoot  -9.03172 -0.28875 11.2063
RightToes  7.56698e-010 0 -3.6325e-017
Spine  47.9589 4.1939 -30.869
Spine1  -22.9452 -8.34425 37.8088
HEad  -40.2366 39.118 -33.3729
LeftShoulder1  -0.0934493 5.66402 4.72298
LeftArm  -34.3395 -62.7243 -43.7599
LeftForeArm  -7.51441 -62.7006 -23.4373
LeftHand  -0.570455 9.29903 -14.5548
RightShoulder  -15.831 -50.4066 24.9243
RightArm  38.1708 53.7248 107.954
RightForeArm  -1.36476 76.5674 67.3791
RightHand  -1.46938 13.8855 -9.23735
LeftUpLeg  -23.7564 10.0147 5.10075
LeftLeg  39.6771 -0.667841 -0.199023
LeftFoot  -11.687 0.0685522 -0.52006
LeftToes  -2.88401e-009 5.30678e-011 -1.08654e-010
1595
root  18.7766 37.061 -7.53815 -47.3983 85.998 -43.833
RightUpLeg  -18.3022 -13.1282 -15.2629
RightLeg  66.9619 -0.0378059 -0.754317
RightFoot  -9.2107 -0.236892 9.34024
RightToes  7.56698e-010 0 -3.6325e-017
Spine  47.9388 4.03736 -31.2121
Spine1  -22.9839 -8.59111 37.8475
HEad  -40.6297 39.1295 -33.3685
LeftShoulder1  -0.103577 5.89097 4.70051
LeftArm  -34.5141 -63.3403 -43.8773
LeftForeArm  -7.57981 -62.6958 -23.4382
LeftHand  -0.533858 9.21163 -13.8675
RightShoulder  -16.0073 -50.0034 25.6202
RightArm  38.2336 54.5081 107.499
RightForeArm  -0.468598 76.7013 68.9423
RightHand  -1.60822 15.1677 -9.47594
LeftUpLeg  -21.5955 10.0083 5.08161
LeftLeg  37.7958 -0.599069 -0.11216
LeftFoot  -11.9263 0.0681866 -0.662008
LeftToes  -2.88401e-009 5.30678e-011 -1.08654e-010
1596
root  19.2476 37.2468 -7.64798 -45.1994 86.0122 -41.2683
RightUpLeg  -21.195 -14.4522 -14.6432
RightLeg  67.1614 -0.21662 -1.26039
RightFoot  -9.4756 -0.194798 7.99988
RightToes  7.56698e-010 0 -3.6325e-017
Spine  48.2859 3.97167 -31.7398
Spine1  -23.0404 -8.94976 37.9155
HEad  -40.8236 39.2117 -33.4456
LeftShoulder1  -0.103733 6.01921 4.96589
LeftArm  -34.7899 -63.5367 -44.3018
LeftForeArm  -6.96324 -62.7827 -23.477
LeftHand  -0.551262 9.35823 -13.8281
RightShoulder  -16.1724 -49.5498 26.3408
RightArm  37.973 55.0389 107.113
RightForeArm  0.194173 76.7446 69.429
RightHand  -1.66402 15.2411 -9.71366
LeftUpLeg  -19.6996 10.0379 4.91876
LeftLeg  36.6534 -0.53932 -0.0483587
LeftFoot  -12.4121 0.0686884 -0.632751
LeftToes  -2.88401e-009 5.30678e-011 -1.08654e-010
1597
root  19.696 37.3207 -7.74446 -42.7687 85.9952 -38.4955
RightUpLeg  -23.9256 -15.5863 -13.9973
RightLeg  65.1235 0.342561 0.175905
RightFoot  -10.1055 -0.15978 8.49172
RightToes  7.56698e-010 0 -3.6325e-017
Spine  48.6239 3.95369 -32.006
Spine1  -23.0487 -9.15776 37.9085
HEad  -40.8875 39.2458 -33.8967
LeftShoulder1  -0.0846027 5.66654 5.19293
LeftArm  -35.2614 -63.4247 -44.2739
LeftForeArm  -6.61732 -62.918 -23.5968
LeftHand  -0.491534 8.882 -13.8451
RightShoulder  -16.215 -50.4729 25.667
RightArm  37.6583 54.6412 107.934
RightForeArm  1.12738 76.8714 71.1145
RightHand  -2.00375 16.468 -10.9611
LeftUpLeg  -18.2999 10.1977 4.78239
LeftLeg  36.3495 -0.525658 -0.0334334
LeftFoot  -13.2225 0.0696517 -0.569289
LeftToes  -2.88401e-009 5.30678e-011 -1.08654e-010
1598
root  20.1371 37.3071 -7.81643 -39.5335 85.9573 -35.1989
RightUpLeg  -26.6891 -16.5736 -13.138
RightLeg  61.0955 0.853239 1.16824
RightFoot  -10.861 -0.114352 9.5978
RightToes  7.56698e-010 0 -3.6325e-017
Spine  49.0758 3.83813 -32.144
Spine1  -23.3198 -9.31217 37.8344
HEad  -41.1802 39.0462 -33.9476
LeftShoulder1  -0.0944303 5.93109 5.24468
LeftArm  -34.8851 -63.8683 -44.4903
LeftForeArm  -7.10102 -62.8693 -23.5886
LeftHand  -0.452122 8.76275 -13.1042
RightShoulder  -16.0648 -50.8014 25.0949
RightArm  36.6272 54.3585 107.846
RightForeArm  4.94253 76.9829 72.1353
RightHand  -1.33241 14.1171 -8.35395
LeftUpLeg  -17.5523 10.6712 4.64519
LeftLeg  36.6966 -0.714064 -0.188337
LeftFoot  -14.3183 0.0713957 -0.579562
LeftToes  -2.88401e-009 5.30678e-011 -1.08654e-010
1599
root  20.586 37.2157 -7.87389 -37.8726 85.7812 -33.4094
RightUpLeg  -28.7886 -17.3178 -12.1198
RightLeg  55.5296 0.991122 1.14979
RightFoot  -11.3128 -0.0799346 10.1957
RightToes  7.56698e-010 0 -3.6325e-017
Spine  49.5533 3.80933 -32.0985
Spine1  -23.4231 -9.40262 37.8287
HEad  -40.8812 39.2242 -33.0477
LeftShoulder1  -0.0730801 5.63081 5.76143
LeftArm  -34.3413 -63.5685 -45.6111
LeftForeArm  -6.53039 -62.9273 -23.5997
LeftHand  -0.509163 9.23808 -13.064
RightShoulder  -16.048 -51.1293 24.8049
RightArm  36.3212 54.2474 107.745
RightForeArm  5.82391 77.0792 73.685
RightHand  -1.5713 14.5437 -9.54154
LeftUpLeg  -17.033 11.3308 4.74195
LeftLeg  37.6802 -1.06641 -0.495667
LeftFoot  -15.5882 0.0842286 -0.242837
LeftToes  -2.88401e-009 5.30678e-011 -1.08654e-010
1600
root  21.0183 37.0615 -7.91077 -37.9092 85.6656 -33.4888
RightUpLeg  -30.5574 -17.7439 -11.0565
RightLeg  49.1109 0.695522 0.529526
RightFoot  -11.3822 -0.0738522 9.90819
RightToes  7.56698e-010 0 -3.6325e-017
Spine  49.7426 3.74603 -32.0888
Spine1  -22.6908 -9.80382 38.491
HEad  -42.1413 39.2042 -33.8912
LeftShoulder1  -0.10245 6.07187 5.08654
LeftArm  -34.2624 -64.1345 -45.5599
LeftForeArm  -6.65962 -62.6764 -23.3271
LeftHand  -0.498968 9.0066 -13.6227
RightShoulder  -16.1583 -49.8663 26.0442
RightArm  35.9739 55.436 106.602
RightForeArm  4.99091 77.0322 73.0046
RightHand  -1.5706 14.324 -9.63647
LeftUpLeg  -17.0038 11.5594 4.88026
LeftLeg  39.1712 -1.13992 -0.603191
LeftFoot  -17.0242 0.0905359 -0.230774
LeftToes  -2.88401e-009 5.30678e-011 -1.08654e-010
1601
root  21.4659 36.8262 -7.91135 -37.6866 85.5667 -33.4354
RightUpLeg  -31.8004 -17.4409 -10.2031
RightLeg  42.1485 0.211586 -0.0851449
RightFoot  -11.2141 -0.0871755 9.6976
RightToes  7.56698e-010 0 -3.6325e-017
Spine  50.1135 3.53543 -31.7735
Spine1  -22.516 -10.0801 38.5486
HEad  -42.1314 39.274 -33.8566
LeftShoulder1  -0.0826159 6.02852 5.93657
LeftArm  -34.0909 -63.6186 -46.6273
LeftForeArm  -6.91423 -62.726 -23.4079
LeftHand  -0.462609 8.55232 -14.3144
RightShoulder  -16.056 -49.8578 25.8393
RightArm  35.6162 55.2247 106.338
RightForeArm  5.58119 77.0086 72.4108
RightHand  -1.51109 15.0497 -8.90582
LeftUpLeg  -17.3732 11.6278 5.01691
LeftLeg  41.2113 -1.0843 -0.614729
LeftFoot  -18.6527 0.0990232 -0.208357
LeftToes  -2.88401e-009 5.30678e-011 -1.08654e-010
1602
root  21.9284 36.5031 -7.84281 -33.9519 85.3825 -29.7144
RightUpLeg  -32.595 -16.1644 -9.81544
RightLeg  35.8503 0.207018 -0.108917
RightFoot  -11.2411 -0.0852084 9.82942
RightToes  7.56698e-010 0 -3.6325e-017
Spine  50.5571 3.45091 -31.4844
Spine1  -22.5465 -10.2013 38.2389
HEad  -41.4485 39.6608 -33.6061
LeftShoulder1  -0.0741653 5.90593 6.17037
LeftArm  -33.8339 -63.2645 -46.4988
LeftForeArm  -6.99345 -62.7277 -23.4176
LeftHand  -0.478743 8.68772 -14.254
RightShoulder  -16.0102 -49.6823 25.8877
RightArm  35.6605 54.8815 105.703
RightForeArm  4.72444 77.016 72.7745
RightHand  -2.2063 17.3496 -11.6598
LeftUpLeg  -17.6946 11.7892 5.11985
LeftLeg  43.6974 -0.838326 -0.443043
LeftFoot  -20.5075 0.107865 -0.18113
LeftToes  -2.88401e-009 5.30678e-011 -1.08654e-010
1603
root  22.4244 36.0717 -7.73568 -31.8384 85.2872 -27.2885
RightUpLeg  -32.8994 -14.3703 -9.92784
RightLeg  31.2434 1.0718 0.464293
RightFoot  -11.3727 -0.074747 9.63438
RightToes  7.56698e-010 0 -3.6325e-017
Spine  50.8705 3.56111 -31.2623
Spine1  -21.8008 -10.4447 38.379
HEad  -41.5635 39.8709 -33.939
LeftShoulder1  -0.093257 6.14376 5.659
LeftArm  -33.7488 -63.4307 -46.3226
LeftForeArm  -6.86053 -62.6812 -23.3522
LeftHand  -0.493222 8.64314 -14.9331
RightShoulder  -15.9438 -49.6242 25.8117
RightArm  35.6683 55.0334 105.887
RightForeArm  3.19734 76.9434 71.8643
RightHand  -1.89769 16.5622 -10.404
LeftUpLeg  -17.8764 11.7796 5.38233
LeftLeg  46.8125 -0.578468 -0.222453
LeftFoot  -22.8447 0.0843693 -0.527043
LeftToes  -2.88401e-009 5.30678e-011 -1.08654e-010
1604
root  22.9339 35.5148 -7.56375 -30.0057 85.0009 -25.3726
RightUpLeg  -33.6971 -11.9 -10.006
RightLeg  29.1859 1.90716 0.925702
RightFoot  -11.3748 -0.0745757 9.77257
RightToes  7.56698e-010 0 -3.6325e-017
Spine  51.7239 3.7199 -30.7549
Spine1  -22.9214 -9.93976 38.5459
HEad  -40.5326 40.1133 -33.376
LeftShoulder1  -0.0342802 4.53822 5.87122
LeftArm  -33.9241 -61.6727 -45.8835
LeftForeArm  -6.52234 -62.7196 -23.3625
LeftHand  -0.482854 8.6698 -14.4756
RightShoulder  -15.4572 -51.2445 23.4936
RightArm  35.733 53.1657 107.017
RightForeArm  3.79017 76.8851 70.7635
RightHand  -1.3289 15.4557 -7.82335
LeftUpLeg  -18.5555 11.6464 5.86181
LeftLeg  50.5691 -0.359207 -0.00787112
LeftFoot  -25.3964 0.0328648 -0.963029
LeftToes  -2.88401e-009 5.30678e-011 -1.08654e-010
